<?xml version="1.0" encoding="utf-8"?>
<!-- Generator: Adobe Illustrator 19.1.0, SVG Export Plug-In . SVG Version: 6.00 Build 0)  -->
<svg version="1.1" id="Layer_1" xmlns="http://www.w3.org/2000/svg" xmlns:xlink="http://www.w3.org/1999/xlink" x="0px" y="0px"
	 viewBox="0 0 221 222" style="enable-background:new 0 0 221 222;" xml:space="preserve">
<style type="text/css">
	.st0{fill:#FFFFFF;}
</style>
<path id="XMLID_323_" class="st0" d="M160.3,133.1c-17.5,0-32.3,12.9-38,18.9H114v-42h8.3c5.7,6,20.5,18.7,38,18.7
	c22.3,0,40.5-22.3,40.5-22.3s-18.1-21.9-40.5-21.9c-17.5,0-32.3,13.5-38,19.5H114v-6.9c6-6,20-20.5,20-37.5
	c0-22.4-21.5-40.5-21.5-40.5S89.3,37.3,89.3,59.6c0,18,15.7,33.2,18.7,38.5v5.9h-2.5c-5.7-6-20.5-19.6-38-19.6
	c-22.4,0-40.5,21.9-40.5,21.9s18.1,22.6,40.5,22.6c17.4,0,32.3-12.8,38-18.8h2.5v42h-2.5c-5.7-6-20.5-18.9-38-18.9
	c-22.4,0-40.5,22.3-40.5,22.3s18.1,22,40.5,22c17.4,0,32.3-13.4,38-19.4h2.5v42h6v-42h8.3c5.7,6,20.5,19.5,38,19.5
	c22.3,0,40.5-22.2,40.5-22.2S182.7,133.1,160.3,133.1z"/>
</svg>
