<?xml version="1.0" encoding="utf-8"?>
<!-- Generator: Adobe Illustrator 19.1.0, SVG Export Plug-In . SVG Version: 6.00 Build 0)  -->
<svg version="1.1" id="Layer_1" xmlns="http://www.w3.org/2000/svg" xmlns:xlink="http://www.w3.org/1999/xlink" x="0px" y="0px"
	 viewBox="0 0 221 222" style="enable-background:new 0 0 221 222;" xml:space="preserve">
<style type="text/css">
	.st0{opacity:0.3;fill:#FFFFFF;}
</style>
<path class="st0" d="M128.1,128.5c10.2-6.2,18.6-15.6,25-28.2c2.1-4.2,3.9-8.2,5.3-12c1.4-3.8,2.1-7.1,2.1-9.7c0-2.5-1-4.6-2.9-6.4
	c-1.9-1.8-4.3-3.3-7.2-4.4c-2.9-1.1-6-2-9.3-2.6c-3.3-0.6-6.5-0.9-9.6-0.9c-5.1,0-10.2,0.5-15,1.4c-4.9,1-9.4,2.2-13.7,3.7
	c-4.3,1.5-8.2,3.2-11.7,5c-3.5,1.8-6.6,3.5-9.3,5c0.6,0,1.8,0.3,3.6,1c1.8,0.7,3.6,1.7,5.4,3c1.8,1.3,2,2.9,3.4,4.6
	c1.4,1.7,0.7,3.6,0.7,5.7V96c0,0.6,1.3,1.2,1,2c-0.3,0.8,0,1.7-0.6,2.9c-0.6,1.1-1.1,2.9-2.2,5.2c-1.3,2.7-2.4,5.1-3.4,7.3
	c-1,2.2-2,4.4-3.1,6.6c-1.1,2.2-2,4.5-3,7c-1,2.5-2.1,5.4-3.4,8.9c1.5,1,3.9,1.5,7,1.7c3.1,0.2,5.9,0.3,8.2,0.3
	C107,137.8,117.9,134.7,128.1,128.5z M119.1,182.3c-7.6-5.2-14.7-11.3-21.3-18.3c-6.6-7-13.1-14.1-19.6-21.3
	c-0.4,0.4-0.8,1.1-1.1,2.1c-0.4,1-0.7,2.1-1,3.3c-0.3,1.1-0.6,2.2-0.9,3.2c-0.3,1-0.4,1.7-0.4,2.3c-0.8,3.2-1.4,5.9-1.9,8
	c-0.5,2.1-0.9,4.2-1.3,6.3c-0.4,2.1-0.6,3.7-0.6,4.9c-0.4,0-1.2-0.2-2.4-0.6c-1.2-0.4-2.5-1-3.9-1.9c-1.3-0.9-2.6-2-3.7-3.4
	c-1.1-1.4-1.7-3.4-1.7-5.9c0-4,0.5-8,1.6-11.9c1.1-3.9,2-8.1,3-12.5c-4.4-2.1-8-4.3-10.7-6.6c-2.8-2.3-5-4.4-6.6-6.3
	c-1.6-1.9-3.5-4-4.8-6.3c-0.2,0-0.7-0.1-0.7-0.3v-0.6c0-1,1-1.4,2.1-1.4c0.4,0,1.2,0.7,2.1,2c0.9,1.3,2.2,2.9,3.8,4.7
	c1.6,1.8,3.8,3.6,6.3,5.3c2.6,1.7,5.9,3,9.9,3.7c0.8-3.6,1.7-7,2.7-10c1-3,2.1-5.9,3.2-8.6c1.1-2.7,2.1-5.4,3.2-8.2
	c1.1-2.8,2.1-5.9,3-9.3l2-6c0.6-1.7,1.1-3.4,1.6-5.2c0.5-1.7,0.7-3.2,0.7-4.3c-5,2.9-9.1,5.6-12.3,8.3c-3.2,2.7-5.8,5-7.7,7
	c-1.9,2-3.3,3.6-4.3,4.7c-1,1.1-1.5,1.7-1.7,1.7c-3.4-2.7-5.8-5.3-7-8c-1.2-2.7-1.9-5.1-1.9-7.2c0-2.3,0.2-4.1,0.4-5.3
	c0.3-1.2,0.9-2.3,1.7-3.3c0.9-1,1.9-1.2,3.1-2.1c1.2-1,2.9-3.3,5-3.3h0.3c2.7-3,6.4-4.9,11.2-7.5c4.8-2.6,10.3-5.4,16.5-7.7
	c6.2-2.3,12.8-4.4,19.9-5.9c7.1-1.5,14.3-2.4,21.8-2.4c2.5,0,6.6,0.2,12.3,0.7c5.7,0.5,11.5,1.7,17.3,3.7c5.8,2,10.9,4.9,15.3,8.7
	c4.4,3.8,6.6,9.2,6.6,16c0,2.7-0.4,5.4-1.1,8.2c-0.8,2.8-1.6,5.2-2.6,7.3c-3.6,8.6-8.2,16.1-13.7,22.6c-5.5,6.5-11.6,11.9-18.3,16.3
	c-6.7,4.4-13.6,7.7-20.9,9.9c-7.3,2.2-14.3,3.3-21.2,3.3c-0.8,0-1.5,0-2.3-0.1c-0.8-0.1-1.5-0.1-2.3-0.1c4.2,5.2,9.3,9.9,15.3,14.3
	c6,4.4,12.4,8.2,19,11.3c6.7,3.2,13.5,5.6,20.6,7.3c7.1,1.7,13.7,2.6,20,2.6c2.6,0,5-0.1,7.2-0.2c17-16.6,27.6-39.8,27.6-65.5
	c0-50.5-41.1-91.5-91.5-91.5c-50.5,0-91.5,41.1-91.5,91.5c0,50.5,41.1,91.5,91.5,91.5c14.2,0,27.7-3.3,39.7-9.1
	c-3.4-0.6-6.7-1.4-9.8-2.5C135,191.7,126.7,187.5,119.1,182.3z"/>
</svg>
