<?xml version="1.0" encoding="utf-8"?>
<!-- Generator: Adobe Illustrator 19.1.0, SVG Export Plug-In . SVG Version: 6.00 Build 0)  -->
<svg version="1.1" id="Layer_1" xmlns="http://www.w3.org/2000/svg" xmlns:xlink="http://www.w3.org/1999/xlink" x="0px" y="0px"
	 viewBox="0 0 221 222" style="enable-background:new 0 0 221 222;" xml:space="preserve">
<style type="text/css">
	.st0{opacity:0.3;}
	.st1{fill:#FFFFFF;}
</style>
<g class="st0">
	<g>
		<path class="st1" d="M40.6,188.6l-2.5-4.2l12.3-11.7l-16.5,4.5l-2.1-3.5l11.8-12.5l-16.1,5.3l-2.5-4.2l25.2-8.3l2.4,4.1
			l-11.9,12.7l16.7-4.6l2.4,4L40.6,188.6z"/>
		<path class="st1" d="M20.2,144.1l-0.5-5l9.7-1l-0.9-8.6l-9.7,1l-0.5-4.9l25.7-2.7l0.5,4.9L33.2,129l0.9,8.6l11.3-1.2l0.5,5
			L20.2,144.1z"/>
		<path class="st1" d="M22.8,93.5c1.1-3.5,3.3-6.1,6.7-7.8c3.3-1.7,6.8-2,10.4-0.8c3.6,1.1,6.2,3.4,7.9,6.6c1.7,3.3,2,6.7,0.9,10.2
			c-1.2,3.7-3.4,6.4-6.8,8c-3.3,1.6-6.8,1.9-10.3,0.8c-2.4-0.8-4.3-2-5.9-3.8c-1.6-1.8-2.7-3.8-3.2-6.2C22,98.1,22.1,95.8,22.8,93.5
			z M27.4,95c-0.7,2.3-0.5,4.4,0.5,6.5c1.1,2.1,2.9,3.5,5.3,4.3c2.7,0.9,5.2,0.6,7.4-0.9c1.7-1.1,2.9-2.7,3.5-4.6
			c0.7-2.2,0.5-4.4-0.6-6.5c-1.1-2.1-2.8-3.5-5.2-4.2c-2.3-0.8-4.6-0.6-6.7,0.5C29.5,91.1,28.1,92.7,27.4,95z"/>
		<path class="st1" d="M37.1,66.1l3.1-3.9l16.6,13.1l4.4-5.6l3.7,2.9l-7.5,9.5L37.1,66.1z"/>
		<path class="st1" d="M55.4,46.5l11.5-8.2l2.8,3.9l-7.5,5.4l2.7,3.8l7.5-5.4l2.7,3.8l-7.5,5.4l4,5.5l7.5-5.4l2.8,3.9l-11.5,8.2
			L55.4,46.5z"/>
		<path class="st1" d="M102.3,51.4l-3.1-25.7l4-0.5c2.3-0.3,4.1-0.3,5.2-0.2c1.6,0.2,2.9,0.8,3.9,1.8c1,1,1.7,2.2,1.8,3.7
			c0.1,1,0,1.9-0.3,2.7c-0.3,0.8-0.9,1.7-1.7,2.5c1.6,0.5,2.9,1.3,3.8,2.3c0.9,1,1.4,2.3,1.6,3.8c0.2,1.4,0,2.8-0.6,4.1
			c-0.6,1.3-1.5,2.3-2.6,3c-1.1,0.7-2.7,1.2-4.8,1.5L102.3,51.4z M104.7,29.8l0.7,5.4l1.1-0.1c1.2-0.1,2-0.5,2.6-1.1
			c0.5-0.6,0.7-1.3,0.6-2.1c-0.1-0.8-0.4-1.4-1.1-1.8c-0.6-0.4-1.5-0.5-2.6-0.4L104.7,29.8z M105.9,39.6l0.8,6.6l1.2-0.1
			c2-0.2,3.4-0.7,4-1.3c0.6-0.6,0.9-1.4,0.8-2.4c-0.1-1.1-0.7-1.9-1.6-2.5c-0.9-0.5-2.3-0.7-4.2-0.5L105.9,39.6z"/>
		<path class="st1" d="M131.8,24.8l13.8,2.7l-0.9,4.7l-9.1-1.8l-0.9,4.6l9.1,1.8l-0.9,4.6l-9.1-1.8l-1.3,6.7l9.1,1.8l-0.9,4.7
			l-13.8-2.7L131.8,24.8z"/>
		<path class="st1" d="M168.8,37.5l4.3,2.6l-5,27.3l-4.4-2.7l1-5.6l-9-5.5l-4.6,3.5l-4.4-2.7L168.8,37.5z M167.3,44.7l-7.6,5.8
			l5.9,3.6L167.3,44.7z"/>
		<path class="st1" d="M194.5,58l2.7,3.9l-7.5,18.9l13.9-9.8l2.8,4l-21.1,14.9l-2.7-3.9l7.5-18.8l-13.8,9.8l-2.8-4L194.5,58z"/>
	</g>
	<g>
		<path id="XMLID_359_" class="st1" d="M77.9,147.6c-6.6-14.8-1.5-35.3,13.7-50.5c16.4-16.4,39.1-21,53.9-11.9
			c0.9,0.6,0.8,2-0.3,2.3c-4.3,1.3-8.5,3.2-12.3,5.7c-10.1,6.7-17,16.9-19.4,28.8c-2,9.8-7.7,18.2-16,23.8c-3.8,2.5-8,4.3-12.4,5.3
			C82.1,151.8,79.2,150.3,77.9,147.6z"/>
		<path id="XMLID_324_" class="st1" d="M143.1,148.6c-16.4,16.4-39.1,21-53.9,11.9c-0.9-0.6-0.8-2,0.3-2.3c4.3-1.3,8.5-3.2,12.4-5.7
			c10.1-6.7,17-16.9,19.4-28.8c3-14.9,14.5-25.9,28.4-29.1c2.9-0.7,5.9,0.8,7.1,3.5C163.3,112.8,158.3,133.4,143.1,148.6z"/>
	</g>
</g>
</svg>
