<?xml version="1.0" encoding="utf-8"?>
<!-- Generator: Adobe Illustrator 19.1.0, SVG Export Plug-In . SVG Version: 6.00 Build 0)  -->
<svg version="1.1" id="Layer_1" xmlns="http://www.w3.org/2000/svg" xmlns:xlink="http://www.w3.org/1999/xlink" x="0px" y="0px"
	 viewBox="0 0 221 222" style="enable-background:new 0 0 221 222;" xml:space="preserve">
<style type="text/css">
	.st0{opacity:0.3;}
	.st1{fill:#FFFFFF;}
</style>
<g class="st0">
	<g>
		<path class="st1" d="M173.9,25.9l-7.9,3.9l-9.2-4.8l-9.6,4.8l-6.2-3.2l-2-1l-0.9,0.7l-1,1.7h0l-1.7-0.4l-2.2,0.5l-4.7,2l-9.1-4.9
			l-9.5,4.7l-9.1-4.8l-9.5,4.8l-4.3-2.3l-2.1,0.1L83.3,28h0l-0.9-1.7l-1-0.1l-2,0.7L72.9,30l-9.1-4.8l-9.5,4.7l-7-3.9L42,23v181.2
			l13-6.7l8.9,4.8l9.4-4.8l9,4.8l9.5-4.8l9.1,4.8l9.5-4.8l9.1,4.8l9.5-4.8l9.1,4.8l9.5-4.8l9.1,4.8l10-4.8l13.5,6.8V23.1L173.9,25.9
			z M86,36.3l4.8,2.2l9.8-4.8l9.2,4.8l9.6-4.8l9,4.8l4.6-2.4v44.3l-6.1-6.1l-8.3,9.5l-8.4-9.1l-8.4,9.1l-9-9.6L86,80.4V36.3z
			 M48,35.8l5.7,2.7l9.8-4.8l9.2,4.8l6.7-2.7L79.4,47H48V35.8z M171,191.5l-5-2.7l-9.4,4.8l-9-4.8l-9.5,4.8l-9.1-4.8l-9.5,4.8
			l-9.1-4.8l-9.5,4.8l-9.1-4.8l-9.5,4.8l-9.1-4.8l-9.5,4.8l-9.6-4.8l-6.2,2.9V56h31.4l0,43.2L93,85.8l8.6,9.7l8.6-9.3l8.6,9.3
			l8.6-9.9L141,99.2l0-43.2h30V191.5z M171,47h-30l0-11l6.1,2.9l9.5-4.9l8.9,4.7l5.5-2.9V47z"/>
	</g>
	<g>
		<path class="st1" d="M120.6,149.6l1.3,3.7c-4.8,4-13.7,2.2-20.2-4.4c-6-6-8-14-5.2-19l0.8,2.2c2,5.5,7,9.3,12.8,9.6
			C114.9,142,119,145.1,120.6,149.6z"/>
		<path class="st1" d="M118.7,131.9c6,6,8,14,5.2,19l-0.8-2.2c-2-5.5-7-9.3-12.8-9.6c-4.7-0.3-8.9-3.4-10.5-7.9l-1.3-3.7
			C103.4,123.5,112.2,125.4,118.7,131.9z"/>
	</g>
</g>
</svg>
