<?xml version="1.0" encoding="utf-8"?>
<!-- Generator: Adobe Illustrator 19.1.0, SVG Export Plug-In . SVG Version: 6.00 Build 0)  -->
<svg version="1.1" id="Layer_1" xmlns="http://www.w3.org/2000/svg" xmlns:xlink="http://www.w3.org/1999/xlink" x="0px" y="0px"
	 viewBox="0 0 304.8 123.7" style="enable-background:new 0 0 304.8 123.7;" xml:space="preserve">
<style type="text/css">
	.st0{fill:#B35D27;}
</style>
<g>
	<path class="st0" d="M27.7,88.1c0-2.5,0.3-4.9,1-7.3c0.6-2.4,1.3-5,1.9-7.7c-2.7-1.3-4.9-2.6-6.6-4.1c-1.7-1.4-3.1-2.7-4.1-3.9
		c-1-1.2-2.4-2.5-3.2-3.9c-0.1,0-0.6-0.1-0.6-0.2v-0.4c0-0.6,0.8-0.9,1.5-0.9c0.2,0,0.9,0.4,1.4,1.2c0.5,0.8,1.4,1.8,2.4,2.9
		c1,1.1,2.4,2.2,3.9,3.3c1.6,1.1,3.6,1.8,6.1,2.3c0.5-2.2,1-4.3,1.7-6.2c0.6-1.9,1.3-3.6,2-5.3c0.6-1.6,1.3-3.3,1.9-5
		c0.6-1.7,1.3-3.6,1.9-5.7l1.2-3.7c0.4-1.1,0.7-2.1,1-3.2c0.3-1.1,0.4-1.9,0.4-2.6c-3.1,1.8-5.6,3.5-7.6,5.1c-2,1.6-3.6,3.1-4.8,4.3
		c-1.2,1.2-2.1,2.2-2.6,2.9c-0.6,0.7-0.9,1.1-1.1,1.1c-2.1-1.6-3.6-3.3-4.3-4.9c-0.8-1.6-1.1-3.1-1.1-4.4c0-1.4,0.1-2.5,0.3-3.3
		c0.2-0.8,0.5-1.4,1.1-2c0.5-0.6,1.2,0.2,1.9-0.4C24,35.5,25,35,26.3,35h0.2c1.6,0,3.9-3.9,6.9-5.5c2.9-1.6,6.3-3.8,10.2-5.2
		c3.8-1.4,7.9-2.9,12.3-3.9c4.4-0.9,8.8-1.6,13.4-1.6c1.5,0,4.1,0.1,7.6,0.4c3.5,0.3,7.1,1,10.7,2.3c3.6,1.2,6.7,3,9.4,5.4
		c2.7,2.4,4.1,5.6,4.1,9.9c0,1.6-0.2,3.3-0.7,5c-0.5,1.7-1,3.2-1.6,4.5c-2.2,5.3-5.1,9.9-8.5,13.9c-3.4,4-7.2,7.4-11.3,10.1
		C74.8,73,70.5,75,66,76.3c-4.5,1.4-8.8,2-13.1,2c-0.5,0-0.9,0-1.4-0.1c-0.5-0.1-0.9-0.1-1.4-0.1c2.6,3.2,5.7,6.1,9.4,8.8
		c3.7,2.7,7.6,5,11.7,7c4.1,1.9,8.4,3.4,12.7,4.5c4.4,1.1,8.5,1.6,12.4,1.6c3.1,0,5.7-0.1,7.9-0.4c2.2-0.3,4.5-1.3,6.9-3.1
		c1.2,1.2,1.8,2.6,1.9,4.2c0.1,1.6-0.3,3.2-1.2,4.8c-0.9,1.5-2.5,2.9-4.8,4c-2.2,1.1-5.2,1.7-8.8,1.9c-6.8,0.2-13-0.6-18.4-2.5
		c-5.5-1.9-10.6-4.4-15.3-7.7c-4.7-3.2-9.1-7-13.2-11.3c-4.1-4.3-8.1-8.7-12.1-13.2c-0.2,0.2-0.5,0.7-0.7,1.3
		c-0.2,0.6-0.4,1.3-0.6,2c-0.2,0.7-0.4,1.4-0.5,1.9c-0.2,0.6-0.3,1.1-0.3,1.4c-0.5,2-0.9,3.6-1.1,4.9c-0.3,1.3-0.6,2.6-0.8,3.9
		c-0.2,1.3-0.4,2.3-0.4,3c-0.2,0-0.7-0.1-1.5-0.4c-0.8-0.2-1.6-0.6-2.4-1.1c-0.8-0.5-1.6-1.2-2.3-2.1C28.1,90.8,27.7,89.6,27.7,88.1
		z M48.9,54.2c-0.8,1.6-1.6,3.2-2.2,4.5c-0.6,1.4-1.3,2.7-1.9,4.1c-0.6,1.4-1.3,2.8-1.9,4.3c-0.6,1.5-1.3,3.4-2.1,5.5
		c0.9,0.6,2.4,0.9,4.3,1.1c1.9,0.1,3.6,0.2,5,0.2c7.1,0,13.7-1.9,20-5.7c6.3-3.8,11.4-9.6,15.4-17.4c1.3-2.6,2.4-5.1,3.3-7.4
		c0.9-2.4,1.3-4.4,1.3-6c0-1.5-0.6-2.9-1.8-4c-1.2-1.1-2.6-2-4.4-2.7c-1.8-0.7-3.7-1.2-5.7-1.6c-2.1-0.4-4-0.5-5.9-0.5
		c-3.2,0-6.3,0.3-9.3,0.9c-3,0.6-5.8,1.4-8.5,2.3c-2.6,0.9-5.1,2-7.2,3.1c-2.2,1.1-4.1,2.1-5.7,3.1c0.4,0,1.1,0.2,2.2,0.6
		c1.1,0.4,2.2,1,3.4,1.9c1.1,0.8,0.8,1.8,1.7,2.8c0.9,1.1,0.1,2.2,0.1,3.5c0,0.6,0,1.1,0,1.4c0,0.4,1.2,0.8,1,1.2
		c-0.2,0.5,0.2,1.1-0.2,1.8C49.5,51.7,49.6,52.8,48.9,54.2z"/>
	<path class="st0" d="M131.7,60.2c0.1,0.6-0.7,1.1-0.7,1.7c0,0.5,0,1.1,0,1.7c0,4.2,0,8.3-1.9,12.1c-1.8,3.8-3.2,6.9-5.1,9.3
		c0.5,0.2,1.4,0.4,2.3,0.4c1.1,0,2.2-0.2,3.1-0.6c0.9-0.4,1.9-0.9,2.7-1.4c0.8-0.5,1.6-1,2.1-1.4c0.6-0.4,1.1-0.6,1.4-0.6
		c0.4,0,0.5,0.3,0.5,0.9c0,0.5-0.2,1.1-0.6,2c-0.4,0.9-1.1,1.8-1.9,2.6c-0.9,0.9-2.1,1.6-3.7,2.3c-1.6,0.6-3.5,1-5.7,1
		c-1.4,0-2.9-0.3-4.4-0.9c-0.6,0.8-2,2-4.1,3.6c-2.2,1.6-4.7,2.4-7.7,2.4c-2.5,0-4.6-0.5-6.3-1.6c-1.7-1.1-3.1-2.4-4.1-4.1
		c-1.1-1.6-1.9-3.4-2.4-5.3c-0.5-1.9-0.8-3.7-0.8-5.5c0-4.6,0.8-8.7,2.3-12.3c1.5-3.6,3.3-6.7,5.2-9.3c1.9-2.6,3.9-4.6,5.7-6.1
		c1.9-1.5,3.2-2.3,3.9-2.6c0.2,0,0.6,0.1,1,0.4c0.4,0.3,1.1,1.2,2,2.7c0.9-0.7,2-1.4,3.2-1.9c1.2-0.6,2.7-0.9,4.6-0.9
		c1.9,0,3.5,0.4,4.8,1.3c1.3,0.9,2.3,1.9,3.1,3.1c0.8,1.2,0.9,2.4,1.3,3.7C131.9,58.3,131.7,59.4,131.7,60.2z M108.6,90.7
		c0.6,0,1.5-0.2,2.6-0.7c1.2-0.5,2.6-1.5,4.2-3c-3.1-1.9-5.1-4.5-6.1-7.8c-1-3.3-1.5-6.5-1.5-9.7c0-0.7,0-1.4,0.1-2.2
		c0.1-0.8,0.1-1.5,0.3-2.2c-2,2.1-3.7,4.5-5,7.2c-1.4,2.7-2,5.6-2,8.8c0,3.2,0.6,5.5,1.9,7C104.4,89.6,106.2,90.5,108.6,90.7z
		 M123.6,72.5c0.2-0.7,0.4-1.5,0.5-2.3c0.1-0.8,0.2-1.6,0.2-2.5c0-1.8-0.1-3.4-0.2-4.9c-0.1-1.5-0.5-2.4-1.2-2.6
		c-0.9,0-1.8,0.5-2.6,1.4c-0.8,0.9-1.6,2.1-2.2,3.4c-0.6,1.4-1.2,2.8-1.6,4.4c-0.4,1.6-0.6,3.1-0.6,4.5c0,1.3,0.2,2.9,0.7,4.9
		c0.5,2,1.4,3.2,2.8,3.7c0.9-1.3,1.8-2.8,2.5-4.4C122.5,76.5,123.1,74.7,123.6,72.5z"/>
	<path class="st0" d="M158.9,12c0.2,0,0.9,0.2,1.9,0.7c1.1,0.5,2.2,1.1,3.4,1.9c1.2,0.8,2.3,1.7,3.3,2.7c0.9,1.1,1.4,2.2,1.4,3.4
		c0,1.1-0.2,2.1-0.6,3.3c-0.4,1.1-0.9,2.1-1.3,3.1c-0.8,1.8-2,4.4-3.6,7.9c-1.6,3.5-3.3,7.4-5.2,11.7c-1.9,4.3-3.8,8.8-5.8,13.5
		c-2,4.7-3.8,9.2-5.4,13.5c-1.6,4.3-2.9,8.2-3.9,11.8c-1,3.6-1.5,6.4-1.5,8.4c0,0.2,0,0.5,0.1,0.9c0.1,0.4,0.2,0.5,0.4,0.5
		c0.6,0,2.1-1.1,4.5-3.2c2.4-2.1,5.5-6.2,9.3-12.4c0.9-0.9,1.6-1.4,1.9-1.4c0.2,0.1,0.4,0.4,0.4,0.9c0,1.1-0.7,2.9-2.1,5.5
		c-1.4,2.6-3.1,5.2-5,7.9c-1.9,2.6-3.9,5-6,7c-2.1,2-3.7,3-5,3c-0.5,0-1,0-1.7-0.1c-0.6-0.1-1.3-0.3-1.9-0.8
		c-0.6-0.5-1.2-1.2-1.7-2.2c-0.5-1-0.7-2.4-0.7-4.1c0-2.5,0.4-5.6,1.1-9.4c0.8-3.8,1.8-7.9,3-12.3c1.2-4.4,2.6-9,4.2-13.9
		c1.6-4.8,3.2-9.5,4.9-14.1c1.6-4.6,3.2-8.9,4.8-13.1c1.5-4.1,2.9-7.7,4.2-10.8c0.4-1.3,0.8-2.6,1.2-3.9c0.4-1.1,0.7-2.1,1-3.2
		C158.7,13.6,158.9,12.7,158.9,12z"/>
	<path class="st0" d="M178.8,12c0.2,0,0.9,0.2,1.9,0.7c1.1,0.5,2.2,1.1,3.4,1.9c1.2,0.8,2.3,1.7,3.3,2.7c0.9,1.1,1.4,2.2,1.4,3.4
		c0,1.1-0.2,2.1-0.6,3.3c-0.4,1.1-0.9,2.1-1.3,3.1c-0.8,1.8-2,4.4-3.6,7.9c-1.6,3.5-3.3,7.4-5.2,11.7c-1.9,4.3-3.8,8.8-5.8,13.5
		c-2,4.7-3.8,9.2-5.4,13.5c-1.6,4.3-2.9,8.2-3.9,11.8c-1,3.6-1.5,6.4-1.5,8.4c0,0.2,0,0.5,0.1,0.9c0.1,0.4,0.2,0.5,0.4,0.5
		c0.6,0,2.1-1.1,4.5-3.2c2.4-2.1,5.5-6.2,9.3-12.4c0.9-0.9,1.6-1.4,1.9-1.4c0.2,0.1,0.4,0.4,0.4,0.9c0,1.1-0.7,2.9-2.1,5.5
		c-1.4,2.6-3.1,5.2-5,7.9c-1.9,2.6-3.9,5-6,7c-2.1,2-3.7,3-5,3c-0.5,0-1,0-1.7-0.1c-0.6-0.1-1.3-0.3-1.9-0.8
		c-0.6-0.5-1.2-1.2-1.7-2.2c-0.5-1-0.7-2.4-0.7-4.1c0-2.5,0.4-5.6,1.1-9.4c0.8-3.8,1.8-7.9,3-12.3c1.2-4.4,2.6-9,4.2-13.9
		c1.6-4.8,3.2-9.5,4.9-14.1c1.6-4.6,3.2-8.9,4.8-13.1c1.5-4.1,2.9-7.7,4.2-10.8c0.4-1.3,0.8-2.6,1.2-3.9c0.4-1.1,0.7-2.1,1-3.2
		C178.7,13.6,178.8,12.7,178.8,12z"/>
	<path class="st0" d="M217.7,78.9c0.2,0.2,0.4,0.5,0.4,0.7c-1.8,3.3-3.8,6.2-6.2,8.7c-2,2.1-4.6,4.1-7.7,5.8
		c-3.1,1.8-6.7,2.6-10.9,2.6c-3.1,0-5.6-0.6-7.8-1.9c-2.1-1.3-3.8-2.9-5.1-4.9c-1.3-1.9-2.2-4-2.7-6.3c-0.5-2.2-0.8-4.2-0.8-6
		c0-4,0.6-7.9,1.9-11.6c1.3-3.7,3.1-7,5.3-10c2.2-2.9,4.8-5.3,7.6-7.1c2.8-1.8,5.8-2.6,8.8-2.6c3.8,0,6.7,1.1,8.7,3.2
		c2.1,2.1,3.1,4.4,3.1,6.9c0,2.5-0.5,4.8-1.6,7.1c-1.1,2.2-2.5,4.2-4.3,5.9c-1.8,1.7-4,3.1-6.4,4.1c-2.5,1-5.1,1.5-7.8,1.5
		c-1.9,0-3.5-0.2-4.8-0.6c-1.3-0.4-2.2-0.9-2.8-1.5c-0.7,2.1-1.1,4.2-1.1,6.4c0,3.3,1,6.3,3.1,8.9c2.1,2.6,4.8,4,8.2,4
		c2.6,0,5.2-0.7,7.9-2.1c2.6-1.4,4.7-2.6,6.3-3.7c1.8-1.3,3.1-2.4,4.1-3.4c1-0.9,1.7-1.7,2.2-2.4c0.5-0.6,0.8-1.1,1-1.4
		c0.2-0.3,0.4-0.4,0.6-0.4C217.2,78.7,217.4,78.8,217.7,78.9z M189.8,62.5c-1.6,2.4-3.1,4.9-4.4,7.8c0.4,0.1,1.1,0.2,2.3,0.2
		c1.8,0,3.5-0.4,5.1-1.2c1.6-0.8,3.1-1.8,4.3-3c1.2-1.2,2.2-2.4,3-3.8c0.8-1.4,1.1-2.5,1.1-3.4c0-1.5-0.8-2.3-2.5-2.3
		c-1.2,0-2.6,0.4-4.1,1.3C193,58.9,191.4,60.4,189.8,62.5z"/>
	<path class="st0" d="M273.1,47.1c-2-0.2-4.3-0.4-6.8-0.5c-2.5-0.1-5.3-0.2-8.4-0.2c-2.4,0-4.9,0.1-7.6,0.3
		c-2.7,0.2-5.6,0.4-8.7,0.6c-1.6,3.3-3.4,6.9-5.4,10.9c-1.9,3.9-3.7,7.9-5.4,11.7c-1.7,3.9-3,7.5-4.1,10.9c-1.1,3.4-1.6,6.1-1.6,8.2
		c0,2.2,0.9,3.4,2.8,3.4c2,0,4.5-1.1,7.6-3.4c3.1-2.3,5.8-6.1,8.3-11.4l0.4-0.2c0.4,0,0.7,0.2,1.1,0.5l0.4,0.4
		c-1.2,4-2.5,7.2-3.9,9.6c-1.4,2.4-3.3,4.7-5.7,6.7c-2.4,2.1-5.4,3.1-9.1,3.1c-0.9,0-1.9-0.1-3-0.4c-1.1-0.3-2.1-0.9-3-1.7
		c-0.9-0.8-1.7-1.9-2.4-3.3c-0.6-1.4-1-3.1-1-5.2c0-2.5,0.4-5.3,1.1-8.5c0.7-3.2,1.6-6.5,2.6-10c1.1-3.5,2.2-6.9,3.5-10.3
		c1.3-3.4,2.6-6.6,3.9-9.7c-1.2,0.5-2.3,0.8-3.4,0.9c-1.1,0.1-2.1,0.2-3,0.2c-3.4,0-6.1-0.8-8.2-2.5c-2.1-1.6-3.1-3.5-3.1-5.5
		c0-2.7,1.8-5,5.3-6.9c1.1,0,1.8,0.2,2.3,0.5c0.5,0.4,0.7,0.6,0.7,0.9c0,0.4-0.2,0.5-0.5,0.5c-0.2,0-0.4-0.1-0.6-0.3
		c-0.2-0.2-0.5-0.3-1-0.3c-0.6,0-1.2,0.2-1.9,0.7c-0.7,0.5-1.1,1.4-1.1,2.8c0,2.4,1.6,3.5,4.8,3.5c1.6,0,3.5-0.3,5.6-0.8
		c2.1-0.5,4.7-1.2,7.9-2c0.7-1.5,1.5-3.3,2.3-5.4c0.8-2.1,1.6-4,2.3-5.8c0.7-1.8,1.5-4,2.3-6.6c0.5,0,1.3,0.3,2.4,0.8
		c1.1,0.5,2.2,1.2,3.3,2c1.1,0.8,2,1.8,2.8,2.9c0.8,1.1,1.2,2.3,1.2,3.4c0,0.9-0.2,1.8-0.5,2.6c-0.4,0.8-0.8,1.8-1.4,2.8
		c4.4-0.7,8.4-1.2,12.1-1.5c3.7-0.3,7.1-0.4,10.2-0.4c4.2,0,7.7,0.2,10.4,0.6c2.7,0.4,4.5,0.7,5.5,1c1.2,0.5,2.2,1.1,3.2,1.9
		c0.8,0.7,1.6,1.6,2.3,2.7c0.7,1.1,1.1,2.6,1.1,4.3c0,0.1,0,0.4-0.1,1c-0.1,0.5-0.1,1.1-0.2,1.7c-0.1,0.6-0.2,1.1-0.4,1.6
		c-0.2,0.5-0.4,0.7-0.6,0.7c-0.4,0-0.8-0.1-1.4-0.4c-0.6-0.3-1.5-0.6-2.7-1.1c-1.2-0.4-2.9-0.8-5-1.2
		C279.3,47.7,276.5,47.4,273.1,47.1z"/>
</g>
</svg>
